<?xml version="1.0"?>
<!DOCTYPE svg PUBLIC "-//W3C//DTD SVG 1.1//EN" "http://www.w3.org/Graphics/SVG/1.1/DTD/svg11.dtd">
<svg width="600" height="400" viewBox="0 0 150 100" version="1.1"
     xmlns="http://www.w3.org/2000/svg"
     xmlns:xlink="http://www.w3.org/1999/xlink"
     >

  <style>
    circle, rect, use, text, g, polygon {
    -webkit-transition: fill-opacity 0.7s, opacity 0.7s, stroke-opacity 0.7s;
    transition: fill-opacity 0.7s, opacity 0.7s, stroke-opacity 0.7s;
    }

    g[name="labels-overlay"] text {
    font-family: 'Helvetica Neue', Helvetica, Arial, sans-serif;
    font-size: 7px;
    fill: white;
    text-anchor: middle;
    font-weight: bold;
    opacity: 1;
    stroke-width: 0.3;
    stroke: #111;
    }

    g[name="lights-status-overlay"] text {
    font-family: 'Helvetica Neue', Helvetica, Arial, sans-serif;
    font-size: 5px;
    fill: #111;
    text-anchor: middle;
    font-weight: bold;
    opacity: 0.9;
    stroke-width: 0.1;
    stroke: yellow;
    }
</style>
  <defs>
    <!-- desk image modified from Jennifer Aguilar, http://www.clker.com/clipart-chair-4.html -->
    <image id="deskImage" width="18" height="18" xlink:href="chair.svg" />

    <radialGradient id="fullLightGradient">
      <stop offset="30%" stop-color="white" stop-opacity="1" />
      <stop offset="50%" stop-color="white" stop-opacity="0.80" />
      <stop offset="95%" stop-color="white" stop-opacity="0.10" />
      <stop offset="100%" stop-color="white" stop-opacity="0.02" />
    </radialGradient>

    <linearGradient id="windowGradient" y1="0%" y2="100%" x1="0%" x2="0%">
      <stop offset="0%" stop-color="white" stop-opacity="0.70" />
      <stop offset="95%" stop-color="white" stop-opacity="0" />
    </linearGradient>

    <filter id="windowLightBlur">
      <feGaussianBlur in="SourceGraphic" stdDeviation="1.5" />
    </filter>
    
    <!-- apple images modified from https://commons.wikimedia.org/wiki/File:Vectorized_Apple_gray_logo.svg -->
    <image id="apple" width="7" height="7" xlink:href="apple.svg" />

  </defs>

  <g id="lights">
    <circle fill="url(#fullLightGradient)" fill-opacity="0" cx="10" cy="20" r="30"/>
    <circle fill="url(#fullLightGradient)" fill-opacity="0" cx="30" cy="20" r="30"/>
    <circle fill="url(#fullLightGradient)" fill-opacity="0" cx="60" cy="20" r="30"/>
    <circle fill="url(#fullLightGradient)" fill-opacity="0" cx="90" cy="20" r="30"/>
    <circle fill="url(#fullLightGradient)" fill-opacity="0" cx="120" cy="20" r="30"/>
    <circle fill="url(#fullLightGradient)" fill-opacity="0" cx="140" cy="20" r="30"/>

    <circle fill="url(#fullLightGradient)" fill-opacity="0" cx="10" cy="50" r="30"/>
    <circle fill="url(#fullLightGradient)" fill-opacity="0" cx="30" cy="50" r="30"/>
    <circle fill="url(#fullLightGradient)" fill-opacity="0" cx="60" cy="50" r="30"/>
    <circle fill="url(#fullLightGradient)" fill-opacity="0" cx="90" cy="50" r="30"/>
    <circle fill="url(#fullLightGradient)" fill-opacity="0" cx="120" cy="50" r="30"/>
    <circle fill="url(#fullLightGradient)" fill-opacity="0" cx="140" cy="50" r="30"/>

    <circle fill="url(#fullLightGradient)" fill-opacity="0" cx="10" cy="80" r="30"/>
    <circle fill="url(#fullLightGradient)" fill-opacity="0" cx="30" cy="80" r="30"/>
    <circle fill="url(#fullLightGradient)" fill-opacity="0" cx="60" cy="80" r="30"/>
    <circle fill="url(#fullLightGradient)" fill-opacity="0" cx="90" cy="80" r="30"/>
    <circle fill="url(#fullLightGradient)" fill-opacity="0" cx="120" cy="80" r="30"/>
    <circle fill="url(#fullLightGradient)" fill-opacity="0" cx="140" cy="80" r="30"/>
  </g>

  <rect x="0" y="0" width="100%" height="100%" fill="none" stroke="black" />

  <g id="whiteboard">
    <title>Whiteboard</title>
    <rect x="0" y="20" width="3" height="60" fill="white" fill-opacity="0.33" stroke="black" stroke-width="0.2" />
  </g>

  <g id="teachersDesk">
    <title>Teacher's Desk</title>
    <rect x="18" y="10" width="20" height="40" fill="#333" fill-opacity="0.4" stroke="black" stroke-width="0.2" />
    <use x="30" y="12" xlink:href="#apple" />
  </g>
  
  <g id="desks">
    <title>Student Desks</title>
    <use x="50" y="10" xlink:href="#deskImage" />
    <use x="50" y="30" xlink:href="#deskImage" />
    <use x="50" y="50" xlink:href="#deskImage" />
    <use x="50" y="70" xlink:href="#deskImage" />

    <use x="70" y="10" xlink:href="#deskImage" />
    <use x="70" y="30" xlink:href="#deskImage" />
    <use x="70" y="50" xlink:href="#deskImage" />
    <use x="70" y="70" xlink:href="#deskImage" />

    <use x="90" y="10" xlink:href="#deskImage" />
    <use x="90" y="30" xlink:href="#deskImage" />
    <use x="90" y="50" xlink:href="#deskImage" />
    <use x="90" y="70" xlink:href="#deskImage" />
  </g>

  <g id="groupArea">
    <title>Group Area</title>
    <rect x="120" y="20" width="20" height="60" fill="#333" fill-opacity="0.40" stroke="black" stroke-width="0.2" />
  </g>

  <g id="windows">
    <title>Windows</title>
    <g>
      <polygon points="11,2 39,2 50,30 0,30" fill="url(#windowGradient)" filter="url(#windowLightBlur)"/>
      <rect x="10" y="0" width="30" height="2" fill="#666" fill-opacity="0.4" stroke="black" stroke-width="0.2" />
    </g>
    <g transform="translate(50,0)">
      <polygon points="11,2 39,2 50,30 0,30" fill="url(#windowGradient)" filter="url(#windowLightBlur)"/>
      <rect x="10" y="0" width="30" height="2" fill="#666" fill-opacity="0.4" stroke="black" stroke-width="0.2" />
    </g>
    <g transform="translate(100,0)">
      <polygon points="11,2 39,2 50,30 0,30" fill="url(#windowGradient)" filter="url(#windowLightBlur)" />
      <rect x="10" y="0" width="30" height="2" fill="#666" fill-opacity="0.4" stroke="black" stroke-width="0.2" />
    </g>
  </g>

  <g id="screen">
    <title>Video screen</title>
    <rect x="50" y="97" width="60" height="3" fill="black" fill-opacity="0.33" stroke="black" stroke-width="0.2" />
  </g>


  <g name="labels-overlay">
    <text x="5" y="50" transform="rotate(-90 5,50)">Whiteboard</text>

    <text x="28" y="30" transform="rotate(-90 28,30)">Teacher's</text>
    <text x="34" y="30" transform="rotate(-90 34,30)">Desk</text>
    
    <text x="75" y="60">Student Desks</text>
    <text x="130" y="52" transform="rotate(-90 130,50)">Group Area</text>
    <text x="75" y="5">Windows</text>
    <text x="80" y="99">Video Screen</text>
  </g>
  
  <g name="lights-status-overlay">
    <text x="10" y="20" >0%</text>
    <text x="30" y="20" >0%</text>
    <text x="60" y="20" >0%</text>
    <text x="90" y="20" >0%</text>
    <text x="120" y="20" >0%</text>
    <text x="140" y="20" >0%</text>

    <text x="10" y="50" >0%</text>
    <text x="30" y="50" >0%</text>
    <text x="60" y="50" >0%</text>
    <text x="90" y="50" >0%</text>
    <text x="120" y="50" >0%</text>
    <text x="140" y="50" >0%</text>

    <text x="10" y="80" >0%</text>
    <text x="30" y="80" >0%</text>
    <text x="60" y="80" >0%</text>
    <text x="90" y="80" >0%</text>
    <text x="120" y="80" >0%</text>
    <text x="140" y="80" >0%</text>
  </g>
  

</svg>
