<?xml version="1.0" encoding="UTF-8" standalone="no"?>
<svg
   xmlns:dc="http://purl.org/dc/elements/1.1/"
   xmlns:cc="http://creativecommons.org/ns#"
   xmlns:rdf="http://www.w3.org/1999/02/22-rdf-syntax-ns#"
   xmlns:svg="http://www.w3.org/2000/svg"
   xmlns="http://www.w3.org/2000/svg"
   xmlns:sodipodi="http://sodipodi.sourceforge.net/DTD/sodipodi-0.dtd"
   xmlns:inkscape="http://www.inkscape.org/namespaces/inkscape"
   width="533.3333333333333"
   height="600"
   id="svg4216"
   version="1.1"
   inkscape:version="0.91 r13725"
   viewBox="0 0 533.333 600"
   sodipodi:docname="chair.svg">
  <metadata
     id="metadata4240">
    <rdf:RDF>
      <cc:Work
         rdf:about="">
        <dc:format>image/svg+xml</dc:format>
        <dc:type
           rdf:resource="http://purl.org/dc/dcmitype/StillImage" />
        <dc:title></dc:title>
      </cc:Work>
    </rdf:RDF>
  </metadata>
  <defs
     id="defs4238" />
  <sodipodi:namedview
     pagecolor="#ffffff"
     bordercolor="#666666"
     borderopacity="1"
     objecttolerance="10"
     gridtolerance="10"
     guidetolerance="10"
     inkscape:pageopacity="0"
     inkscape:pageshadow="2"
     inkscape:window-width="1366"
     inkscape:window-height="754"
     id="namedview4236"
     showgrid="false"
     inkscape:zoom="0.97666667"
     inkscape:cx="276.03381"
     inkscape:cy="328.17332"
     inkscape:window-x="0"
     inkscape:window-y="14"
     inkscape:window-maximized="0"
     inkscape:current-layer="layer1" />
  <g
     id="g4218">
    <title
       id="title4220">Layer 1</title>
    <g
       id="layer1">
      <path
         d="M 324.31836 17.685547 C 314.53403 18.339447 309.87311 24.116492 308.15625 32.837891 L 298.05469 106.57812 C 296.06543 114.75088 300.09009 118.91366 306.13477 121.73047 C 311.20669 122.46694 316.28501 123.18689 321.36523 123.89844 L 319.25781 147.94727 L 177.64844 136.70898 L 10.972656 161.96289 L 10.972656 171.05469 L 63.822266 177.06055 C 59.569109 181.7889 56.09522 190.03781 56.878906 207.3418 L 22.517578 468.84961 C 22.517578 468.84961 8.1634359 483.15393 26.279297 482.55664 C 45.017498 481.93881 30.591797 468.84961 30.591797 468.84961 L 77.439453 197.57422 C 78.35559 182.63156 85.015849 183.00867 90.439453 180.08594 L 136.92188 185.36719 L 183.91992 253.76953 L 184.17578 261.12891 C 186.33869 262.15805 188.63324 263.16014 191.01172 264.14453 C 193.67868 269.44417 199.80595 272.58276 206.9375 274.22852 L 237.02539 529.86328 C 237.02539 529.86328 221.30777 544.1217 241.72266 544.79492 C 261.4595 545.44562 245.82227 529.86328 245.82227 529.86328 L 226.05078 275.55078 C 226.39289 275.52772 226.72196 275.49428 227.05859 275.4668 C 252.66704 281.59402 282.65601 285.5321 312.06641 286.16016 L 306.29297 364.96094 C 307.72153 374.48474 293.01504 382.67364 312.35938 382.43555 C 332.20877 382.19748 317.33124 372.65576 315.78711 365.00781 L 326.77344 286.20117 C 339.1566 285.98209 351.28184 285.12901 362.76172 283.55078 L 426.54297 245.49023 C 426.96936 247.10313 427.46892 248.78373 428.07422 250.57812 L 470.64453 397.86328 C 473.50168 404.52994 458.35721 418.60645 479.2168 417.86328 C 499.57129 417.12012 482.18866 404.0835 480.64453 396.43555 L 445.92969 248.43555 C 444.984 244.57985 444.2567 240.0433 443.7793 235.36719 C 451.14251 230.73158 448.38358 221.0527 443.27734 218.08594 C 443.38389 216.17354 443.54786 214.36119 443.78711 212.7207 L 451.85352 133.85938 C 452.1054 133.85471 452.35541 133.85659 452.60742 133.85156 C 463.22494 135.54971 470.05405 131.52616 470.78906 119.71094 L 480.89062 45.96875 C 483.65054 36.154308 479.81088 24.220697 466.75 22.736328 C 419.27283 27.304548 371.79553 26.571997 324.31836 17.685547 z M 339.84375 126.40039 C 370.44946 130.36899 401.36217 133.41879 433.13281 133.89258 L 425.2168 211.29297 C 425.1464 214.32218 425.01345 217.0027 424.88086 219.56055 C 384.86713 224.55406 358.81924 223.33385 332.98047 217.72656 L 332.92969 205.29297 L 336.07227 169.44141 L 368.56641 160.95312 L 368.56641 151.86133 L 337.82617 149.42188 L 339.84375 126.40039 z M 316.9375 174.43945 L 314.35938 203.86328 L 314.56641 213.3457 C 310.91584 213.02336 304.89621 213.4174 303.14258 214.16992 C 288.25492 220.5585 251.33594 223.87395 222.4375 229.08594 L 221.78711 220.71484 C 222.34729 208.34573 220.90918 200.22395 218.54688 194.64258 L 233.20703 196.30859 L 316.9375 174.43945 z M 159.56445 187.93945 L 184.86719 190.81641 C 190.83664 194.22246 198.36842 193.46313 199.38672 210.07227 L 202.1543 233.58789 C 198.70816 234.57725 195.63068 235.64169 193.01562 236.79492 L 159.56445 187.93945 z "
         id="path4684"
         style="stroke:#000000;stroke-opacity:1;stroke-width:7;stroke-miterlimit:4;stroke-dasharray:none;fill-opacity:0.28034681;fill:#ffffff" />
    </g>
  </g>
</svg>
